%TF.GenerationSoftware,KiCad,Pcbnew,(5.1.7)-1*%
%TF.CreationDate,2021-03-20T09:03:10+03:00*%
%TF.ProjectId,mini_keyboard,6d696e69-5f6b-4657-9962-6f6172642e6b,v0.1*%
%TF.SameCoordinates,Original*%
%TF.FileFunction,Soldermask,Top*%
%TF.FilePolarity,Negative*%
%FSLAX46Y46*%
G04 Gerber Fmt 4.6, Leading zero omitted, Abs format (unit mm)*
G04 Created by KiCad (PCBNEW (5.1.7)-1) date 2021-03-20 09:03:10*
%MOMM*%
%LPD*%
G01*
G04 APERTURE LIST*
%ADD10C,2.000000*%
%ADD11R,1.700000X1.700000*%
%ADD12O,1.700000X1.700000*%
G04 APERTURE END LIST*
D10*
%TO.C,SW1*%
X65350000Y-106680000D03*
X69850000Y-106680000D03*
X65350000Y-113180000D03*
X69850000Y-113180000D03*
%TD*%
D11*
%TO.C,J1*%
X66040000Y-100330000D03*
D12*
X68580000Y-100330000D03*
X71120000Y-100330000D03*
X73660000Y-100330000D03*
X76200000Y-100330000D03*
X78740000Y-100330000D03*
X81280000Y-100330000D03*
X83820000Y-100330000D03*
X86360000Y-100330000D03*
%TD*%
D10*
%TO.C,SW7*%
X126310000Y-106680000D03*
X130810000Y-106680000D03*
X126310000Y-113180000D03*
X130810000Y-113180000D03*
%TD*%
%TO.C,SW6*%
X116150000Y-106680000D03*
X120650000Y-106680000D03*
X116150000Y-113180000D03*
X120650000Y-113180000D03*
%TD*%
%TO.C,SW5*%
X105990000Y-106680000D03*
X110490000Y-106680000D03*
X105990000Y-113180000D03*
X110490000Y-113180000D03*
%TD*%
%TO.C,SW4*%
X95830000Y-106680000D03*
X100330000Y-106680000D03*
X95830000Y-113180000D03*
X100330000Y-113180000D03*
%TD*%
%TO.C,SW3*%
X85670000Y-106680000D03*
X90170000Y-106680000D03*
X85670000Y-113180000D03*
X90170000Y-113180000D03*
%TD*%
%TO.C,SW2*%
X75510000Y-106680000D03*
X80010000Y-106680000D03*
X75510000Y-113180000D03*
X80010000Y-113180000D03*
%TD*%
%TO.C,SW2*%
X80010000Y-89050000D03*
X75510000Y-89050000D03*
X80010000Y-82550000D03*
X75510000Y-82550000D03*
%TD*%
%TO.C,SW3*%
X90170000Y-89050000D03*
X85670000Y-89050000D03*
X90170000Y-82550000D03*
X85670000Y-82550000D03*
%TD*%
%TO.C,SW4*%
X100330000Y-89050000D03*
X95830000Y-89050000D03*
X100330000Y-82550000D03*
X95830000Y-82550000D03*
%TD*%
%TO.C,SW5*%
X110490000Y-89050000D03*
X105990000Y-89050000D03*
X110490000Y-82550000D03*
X105990000Y-82550000D03*
%TD*%
%TO.C,SW6*%
X120650000Y-89050000D03*
X116150000Y-89050000D03*
X120650000Y-82550000D03*
X116150000Y-82550000D03*
%TD*%
%TO.C,SW7*%
X130810000Y-89050000D03*
X126310000Y-89050000D03*
X130810000Y-82550000D03*
X126310000Y-82550000D03*
%TD*%
D12*
%TO.C,J1*%
X86360000Y-76200000D03*
X83820000Y-76200000D03*
X81280000Y-76200000D03*
X78740000Y-76200000D03*
X76200000Y-76200000D03*
X73660000Y-76200000D03*
X71120000Y-76200000D03*
X68580000Y-76200000D03*
D11*
X66040000Y-76200000D03*
%TD*%
D10*
%TO.C,SW1*%
X69850000Y-89050000D03*
X65350000Y-89050000D03*
X69850000Y-82550000D03*
X65350000Y-82550000D03*
%TD*%
%TO.C,SW1*%
X65350000Y-58420000D03*
X69850000Y-58420000D03*
X65350000Y-64920000D03*
X69850000Y-64920000D03*
%TD*%
D11*
%TO.C,J1*%
X66040000Y-52070000D03*
D12*
X68580000Y-52070000D03*
X71120000Y-52070000D03*
X73660000Y-52070000D03*
X76200000Y-52070000D03*
X78740000Y-52070000D03*
X81280000Y-52070000D03*
X83820000Y-52070000D03*
X86360000Y-52070000D03*
%TD*%
D10*
%TO.C,SW7*%
X126310000Y-58420000D03*
X130810000Y-58420000D03*
X126310000Y-64920000D03*
X130810000Y-64920000D03*
%TD*%
%TO.C,SW6*%
X116150000Y-58420000D03*
X120650000Y-58420000D03*
X116150000Y-64920000D03*
X120650000Y-64920000D03*
%TD*%
%TO.C,SW5*%
X105990000Y-58420000D03*
X110490000Y-58420000D03*
X105990000Y-64920000D03*
X110490000Y-64920000D03*
%TD*%
%TO.C,SW4*%
X95830000Y-58420000D03*
X100330000Y-58420000D03*
X95830000Y-64920000D03*
X100330000Y-64920000D03*
%TD*%
%TO.C,SW3*%
X85670000Y-58420000D03*
X90170000Y-58420000D03*
X85670000Y-64920000D03*
X90170000Y-64920000D03*
%TD*%
%TO.C,SW2*%
X75510000Y-58420000D03*
X80010000Y-58420000D03*
X75510000Y-64920000D03*
X80010000Y-64920000D03*
%TD*%
%TO.C,SW7*%
X130810000Y-40790000D03*
X126310000Y-40790000D03*
X130810000Y-34290000D03*
X126310000Y-34290000D03*
%TD*%
%TO.C,SW6*%
X120650000Y-40790000D03*
X116150000Y-40790000D03*
X120650000Y-34290000D03*
X116150000Y-34290000D03*
%TD*%
%TO.C,SW5*%
X110490000Y-40790000D03*
X105990000Y-40790000D03*
X110490000Y-34290000D03*
X105990000Y-34290000D03*
%TD*%
%TO.C,SW4*%
X100330000Y-40790000D03*
X95830000Y-40790000D03*
X100330000Y-34290000D03*
X95830000Y-34290000D03*
%TD*%
%TO.C,SW3*%
X90170000Y-40790000D03*
X85670000Y-40790000D03*
X90170000Y-34290000D03*
X85670000Y-34290000D03*
%TD*%
%TO.C,SW2*%
X80010000Y-40790000D03*
X75510000Y-40790000D03*
X80010000Y-34290000D03*
X75510000Y-34290000D03*
%TD*%
%TO.C,SW1*%
X69850000Y-40790000D03*
X65350000Y-40790000D03*
X69850000Y-34290000D03*
X65350000Y-34290000D03*
%TD*%
D12*
%TO.C,J1*%
X86360000Y-27940000D03*
X83820000Y-27940000D03*
X81280000Y-27940000D03*
X78740000Y-27940000D03*
X76200000Y-27940000D03*
X73660000Y-27940000D03*
X71120000Y-27940000D03*
X68580000Y-27940000D03*
D11*
X66040000Y-27940000D03*
%TD*%
M02*
