M48
; DRILL file {KiCad (5.1.7)-1} date 03/20/21 09:03:12
; FORMAT={-:-/ absolute / inch / decimal}
; #@! TF.CreationDate,2021-03-20T09:03:12+03:00
; #@! TF.GenerationSoftware,Kicad,Pcbnew,(5.1.7)-1
; #@! TF.FileFunction,Plated,1,2,PTH
FMAT,2
INCH
T1C0.0394
T2C0.0433
T3C0.1378
%
G90
G05
T1
X2.6Y-3.95
X2.7Y-3.95
X2.8Y-3.95
X2.9Y-3.95
X3.0Y-3.95
X3.1Y-3.95
X3.2Y-3.95
X3.3Y-3.95
X3.4Y-3.95
X2.6Y-3.0
X2.7Y-3.0
X2.8Y-3.0
X2.9Y-3.0
X3.0Y-3.0
X3.1Y-3.0
X3.2Y-3.0
X3.3Y-3.0
X3.4Y-3.0
X2.6Y-1.1
X2.7Y-1.1
X2.8Y-1.1
X2.9Y-1.1
X3.0Y-1.1
X3.1Y-1.1
X3.2Y-1.1
X3.3Y-1.1
X3.4Y-1.1
X2.6Y-2.05
X2.7Y-2.05
X2.8Y-2.05
X2.9Y-2.05
X3.0Y-2.05
X3.1Y-2.05
X3.2Y-2.05
X3.3Y-2.05
X3.4Y-2.05
T2
X3.7728Y-1.35
X3.7728Y-1.6059
X3.95Y-1.35
X3.95Y-1.6059
X3.7728Y-4.2
X3.7728Y-4.4559
X3.95Y-4.2
X3.95Y-4.4559
X2.5728Y-3.25
X2.5728Y-3.5059
X2.75Y-3.25
X2.75Y-3.5059
X4.9728Y-1.35
X4.9728Y-1.6059
X5.15Y-1.35
X5.15Y-1.6059
X2.9728Y-1.35
X2.9728Y-1.6059
X3.15Y-1.35
X3.15Y-1.6059
X2.9728Y-4.2
X2.9728Y-4.4559
X3.15Y-4.2
X3.15Y-4.4559
X3.3728Y-3.25
X3.3728Y-3.5059
X3.55Y-3.25
X3.55Y-3.5059
X4.1728Y-1.35
X4.1728Y-1.6059
X4.35Y-1.35
X4.35Y-1.6059
X4.5728Y-2.3
X4.5728Y-2.5559
X4.75Y-2.3
X4.75Y-2.5559
X4.1728Y-3.25
X4.1728Y-3.5059
X4.35Y-3.25
X4.35Y-3.5059
X4.9728Y-4.2
X4.9728Y-4.4559
X5.15Y-4.2
X5.15Y-4.4559
X3.7728Y-2.3
X3.7728Y-2.5559
X3.95Y-2.3
X3.95Y-2.5559
X4.9728Y-3.25
X4.9728Y-3.5059
X5.15Y-3.25
X5.15Y-3.5059
X4.1728Y-4.2
X4.1728Y-4.4559
X4.35Y-4.2
X4.35Y-4.4559
X2.9728Y-2.3
X2.9728Y-2.5559
X3.15Y-2.3
X3.15Y-2.5559
X3.3728Y-1.35
X3.3728Y-1.6059
X3.55Y-1.35
X3.55Y-1.6059
X3.3728Y-4.2
X3.3728Y-4.4559
X3.55Y-4.2
X3.55Y-4.4559
X2.5728Y-2.3
X2.5728Y-2.5559
X2.75Y-2.3
X2.75Y-2.5559
X4.5728Y-1.35
X4.5728Y-1.6059
X4.75Y-1.35
X4.75Y-1.6059
X2.5728Y-1.35
X2.5728Y-1.6059
X2.75Y-1.35
X2.75Y-1.6059
X2.9728Y-3.25
X2.9728Y-3.5059
X3.15Y-3.25
X3.15Y-3.5059
X3.7728Y-3.25
X3.7728Y-3.5059
X3.95Y-3.25
X3.95Y-3.5059
X4.9728Y-2.3
X4.9728Y-2.5559
X5.15Y-2.3
X5.15Y-2.5559
X4.1728Y-2.3
X4.1728Y-2.5559
X4.35Y-2.3
X4.35Y-2.5559
X2.5728Y-4.2
X2.5728Y-4.4559
X2.75Y-4.2
X2.75Y-4.4559
X4.5728Y-3.25
X4.5728Y-3.5059
X4.75Y-3.25
X4.75Y-3.5059
X4.5728Y-4.2
X4.5728Y-4.4559
X4.75Y-4.2
X4.75Y-4.4559
X3.3728Y-2.3
X3.3728Y-2.5559
X3.55Y-2.3
X3.55Y-2.5559
T3
X2.44Y-1.04
X2.44Y-1.7
X2.44Y-1.99
X2.44Y-2.65
X2.44Y-2.94
X2.44Y-3.6
X2.44Y-3.89
X2.44Y-4.55
X2.865Y-1.85
X2.865Y-2.8
X2.865Y-3.75
X3.265Y-1.85
X3.265Y-2.8
X3.265Y-3.75
X3.665Y-1.85
X3.665Y-2.8
X3.665Y-3.75
X4.065Y-1.85
X4.065Y-2.8
X4.065Y-3.75
X4.465Y-1.85
X4.465Y-2.8
X4.465Y-3.75
X4.865Y-1.85
X4.865Y-2.8
X4.865Y-3.75
X5.26Y-1.04
X5.26Y-1.7
X5.26Y-1.99
X5.26Y-2.65
X5.26Y-2.94
X5.26Y-3.6
X5.26Y-3.89
X5.26Y-4.55
T0
M30
